<?xml version="1.0" encoding="utf-8"?>
<svg width="1090" height="360" fill="none" viewBox="0 0 1090 360" xmlns="http://www.w3.org/2000/svg">
  <path fill="#0866FF" d="M 881.584 104.84 L 911.064 104.84 L 911.064 152.536 L 952.201 104.84 L 988.273 104.84 L 940.383 159.809 L 981.292 207.472 L 948.467 207.472 L 911.064 163.542 L 911.064 260.524 L 881.584 256.66 L 881.584 104.84 Z M 813.596 210.101 C 780.868 210.101 758.141 188.088 758.141 156.172 C 758.141 124.256 780.868 102.243 813.596 102.243 C 846.323 102.243 869.051 124.256 869.051 156.172 C 869.051 188.088 846.323 210.101 813.596 210.101 Z M 813.596 127.373 C 798.433 127.373 788.044 139.094 788.044 156.172 C 788.044 173.25 798.433 184.971 813.596 184.971 C 828.758 184.971 839.148 173.25 839.148 156.172 C 839.148 139.094 828.758 127.373 813.596 127.373 Z M 693.789 210.101 C 661.062 210.101 638.334 188.088 638.334 156.172 C 638.334 124.256 661.062 102.243 693.789 102.243 C 726.517 102.243 749.244 124.256 749.244 156.172 C 749.244 188.088 726.517 210.101 693.789 210.101 Z M 693.789 127.373 C 678.627 127.373 668.237 139.094 668.237 156.172 C 668.237 173.25 678.627 184.971 693.789 184.971 C 708.952 184.971 719.341 173.25 719.341 156.172 C 719.341 139.094 708.952 127.373 693.789 127.373 Z M 580.963 210.101 C 567.327 210.101 556.028 204.744 548.95 194.939 L 548.95 260.524 L 519.437 256.693 L 519.437 104.873 L 545.606 104.873 L 546.125 120.717 C 553.106 108.899 565.606 102.243 580.963 102.243 C 608.951 102.243 629.438 124.971 629.438 156.172 C 629.438 187.374 609.048 210.101 580.963 210.101 Z M 573.983 127.373 C 558.82 127.373 548.431 139.094 548.431 156.172 C 548.431 173.25 558.82 184.971 573.983 184.971 C 589.145 184.971 599.535 173.25 599.535 156.172 C 599.535 139.094 589.145 127.373 573.983 127.373 Z M 460.345 126.042 C 444.696 126.042 433.462 133.315 429.631 145.847 L 502.261 145.847 C 502.976 149.678 503.463 154.224 503.463 157.276 C 503.463 190.296 484.988 210.101 453.949 210.101 C 422.618 210.101 400.929 188.088 400.929 156.172 C 400.929 123.834 423.657 102.243 457.391 102.243 C 474.858 102.243 491.839 108.087 502.456 117.795 L 491.839 136.496 C 481.547 129.386 471.449 126.042 460.345 126.042 Z M 453.754 187.179 C 467.391 187.179 476.092 178.9 476.092 166.075 L 476.092 165.977 L 429.014 165.977 C 431.839 179.581 440.637 187.179 453.754 187.179 Z M 354.76 102.211 C 370.02 102.211 384.955 108.055 395.474 118.185 L 383.948 137.568 C 375.766 131.204 366.481 127.763 357.682 127.763 C 341.318 127.763 330.409 139.192 330.409 156.14 C 330.409 173.088 341.318 184.517 357.682 184.517 C 365.766 184.517 374.565 181.595 381.708 176.432 L 393.429 196.238 C 383.948 204.809 369.273 210.069 354.727 210.069 C 322.714 210.069 300.084 187.731 300.084 156.14 C 300.116 124.646 322.746 102.211 354.76 102.211 Z M 261.025 207.472 L 260.506 191.497 C 253.525 203.413 241.025 210.069 225.668 210.069 C 197.583 210.069 177.193 187.341 177.193 156.14 C 177.193 124.938 197.713 102.211 225.668 102.211 C 241.025 102.211 253.557 108.867 260.506 120.685 L 261.025 104.841 L 287.194 104.841 L 287.194 207.472 L 261.025 207.472 Z M 232.648 127.373 C 217.486 127.373 207.096 139.094 207.096 156.172 C 207.096 173.25 217.486 184.971 232.648 184.971 C 247.811 184.971 258.2 173.25 258.2 156.172 C 258.2 139.094 247.778 127.373 232.648 127.373 Z M 174.985 207.279 L 148.459 207.279 L 148.459 216.046 C 148.459 229.163 153.589 234.195 166.901 234.195 C 171.024 234.195 174.368 234.098 176.284 233.903 L 176.284 256.403 C 172.647 257.41 163.784 258.416 158.654 258.416 C 131.543 258.416 119.043 245.624 119.043 217.994 L 119.043 207.312 L 102.29 207.312 L 102.29 182.506 L 119.043 182.506 L 119.043 104.875 L 148.491 104.875 L 148.491 182.474 L 170.44 182.474 L 174.985 207.279 Z" style="transform-origin: 545.282px 181.369px;"/>
</svg>